<?xml version="1.0" encoding="utf-8"?>
<!-- Generator: Adobe Illustrator 27.0.1, SVG Export Plug-In . SVG Version: 6.00 Build 0)  -->
<svg version="1.1" id="Layer_1" xmlns="http://www.w3.org/2000/svg" xmlns:xlink="http://www.w3.org/1999/xlink" x="0px" y="0px"
	 viewBox="0 0 73.5 73.5" style="enable-background:new 0 0 73.5 73.5;" xml:space="preserve">
<style type="text/css">
	.st0{fill:#003087;}
	.st1{fill:#6CACE4;}
</style>
<g transform="translate(34.37 48.337)">
	<path class="st0" d="M11.5-39.3c0,5-4.1,9.1-9.1,9.1s-9.1-4.1-9.1-9.1c0-5,4.1-9.1,9.1-9.1S11.5-44.3,11.5-39.3"/>
</g>
<g transform="translate(34.37 27.588)">
	<path class="st1" d="M11.5,9.1c0,5-4.1,9.1-9.1,9.1s-9.1-4.1-9.1-9.1c0-5,4.1-9.1,9.1-9.1S11.5,4.1,11.5,9.1"/>
</g>
<g transform="translate(13.602 27.588)">
	<path class="st1" d="M4.5,9.1c0,5-4.1,9.1-9.1,9.1c-5,0-9.1-4.1-9.1-9.1c0-5,4.1-9.1,9.1-9.1C0.5,0.1,4.5,4.1,4.5,9.1"/>
</g>
<g transform="translate(55.147 27.588)">
	<path class="st1" d="M18.4,9.1c0,5-4.1,9.1-9.1,9.1s-9.1-4.1-9.1-9.1c0-5,4.1-9.1,9.1-9.1S18.4,4.1,18.4,9.1"/>
</g>
<g transform="translate(34.37 6.8015)">
	<path class="st1" d="M11.5,57.6c0,5-4.1,9.1-9.1,9.1s-9.1-4.1-9.1-9.1c0-5,4.1-9.1,9.1-9.1S11.5,52.6,11.5,57.6"/>
</g>
</svg>
